<svg width="1024" height="1024" viewBox="0 0 1024 1024" fill="none" xmlns="http://www.w3.org/2000/svg">
  <defs>
    <radialGradient id="gold" cx="0" cy="0" r="1" gradientUnits="userSpaceOnUse" gradientTransform="translate(360 360) rotate(45) scale(700)">
      <stop offset="0" stop-color="#FFE79A"/>
      <stop offset="0.22" stop-color="#E0A911"/>
      <stop offset="0.62" stop-color="#B38406"/>
      <stop offset="1" stop-color="#6E5204"/>
    </radialGradient>
    <radialGradient id="shine" cx="0" cy="0" r="1" gradientUnits="userSpaceOnUse" gradientTransform="translate(330 360) scale(190)">
      <stop offset="0" stop-color="white" stop-opacity="0.95"/>
      <stop offset="0.35" stop-color="white" stop-opacity="0.38"/>
      <stop offset="1" stop-color="white" stop-opacity="0"/>
    </radialGradient>
    <filter id="softShadow" x="-20%" y="-20%" width="140%" height="140%">
      <feDropShadow dx="0" dy="16" stdDeviation="18" flood-color="#5A3B00" flood-opacity="0.22"/>
    </filter>
  </defs>

  <rect width="1024" height="1024" fill="white"/>

  <g filter="url(#softShadow)">
    <circle cx="512" cy="512" r="450" fill="url(#gold)"/>
    <circle cx="512" cy="512" r="450" fill="url(#shine)"/>
  </g>

  <g stroke="white" stroke-width="26" stroke-linecap="round" fill="none">
    <path d="M62 394C238 493 524 520 962 485"/>
    <path d="M60 664C250 543 560 421 962 300"/>
    <path d="M210 99C409 197 639 248 950 234"/>
    <path d="M164 165C283 332 298 607 262 913"/>
    <path d="M320 78C473 264 664 538 780 865"/>
    <path d="M161 840C374 717 613 603 866 505"/>
    <path d="M836 242C875 363 916 482 962 602"/>
  </g>

  <g fill="white">
    <circle cx="232" cy="207" r="34"/>
    <circle cx="266" cy="603" r="34"/>
    <circle cx="323" cy="777" r="25"/>
    <circle cx="576" cy="633" r="43"/>
    <circle cx="852" cy="415" r="43"/>
  </g>
</svg>
